<svg width="9" height="11" viewBox="0 0 9 11" fill="none" xmlns="http://www.w3.org/2000/svg">
<rect x="0.05" y="3.19288" width="8.9" height="7.75714" rx="0.95" fill="#F7FB68" stroke="black" stroke-width="0.1"/>
<rect x="0.5" y="3.66669" width="4" height="6.80952" fill="#181C1F"/>
<rect x="4.5" y="3.66669" width="4" height="6.80952" fill="#181C1F"/>
<path d="M6.5 4.2403C7.16058 4.2403 7.7002 4.80223 7.7002 5.50006C7.70017 6.19787 7.16056 6.75983 6.5 6.75983C5.83944 6.75983 5.29983 6.19787 5.2998 5.50006C5.2998 4.80223 5.83942 4.2403 6.5 4.2403Z" fill="#E3EA31" stroke="black" stroke-width="0.1"/>
<path d="M6.5 7.38312C7.16058 7.38312 7.7002 7.94505 7.7002 8.64288C7.70017 9.3407 7.16056 9.90265 6.5 9.90265C5.83944 9.90265 5.29983 9.3407 5.2998 8.64288C5.2998 7.94505 5.83942 7.38312 6.5 7.38312Z" fill="#60D331" stroke="black" stroke-width="0.1"/>
<path d="M3 0.0498047H6C6.52467 0.0498047 6.9502 0.47533 6.9502 1V3.09277H2.0498V1C2.0498 0.47533 2.47533 0.0498047 3 0.0498047Z" fill="#F7FB68" stroke="black" stroke-width="0.1"/>
<rect x="2.5" y="0.523804" width="4" height="3.14286" fill="#181C1F"/>
<path d="M4.5 1.09741C5.16058 1.09741 5.7002 1.65934 5.7002 2.35718C5.70017 3.05499 5.16056 3.61694 4.5 3.61694C3.83944 3.61694 3.29983 3.05499 3.2998 2.35718C3.2998 1.65934 3.83942 1.09741 4.5 1.09741Z" fill="#D10F11" stroke="black" stroke-width="0.1"/>
<path d="M2.5 7.38312C3.16058 7.38312 3.7002 7.94505 3.7002 8.64288C3.70017 9.3407 3.16056 9.90265 2.5 9.90265C1.83944 9.90265 1.29983 9.3407 1.2998 8.64288C1.2998 7.94505 1.83942 7.38312 2.5 7.38312Z" fill="#3F403E" stroke="black" stroke-width="0.1"/>
<mask id="path-10-inside-1_134_16102" fill="white">
<path d="M2.60938 7.54285C2.69358 7.54285 2.74058 7.64059 2.6875 7.70593L2.1377 8.38074H3.5752V8.90515H2.13867L2.6875 9.57996C2.7404 9.64529 2.69352 9.74304 2.60938 9.74304H2.25L1.375 8.64246L2.25 7.54285H2.60938Z"/>
</mask>
<path d="M2.60938 7.54285C2.69358 7.54285 2.74058 7.64059 2.6875 7.70593L2.1377 8.38074H3.5752V8.90515H2.13867L2.6875 9.57996C2.7404 9.64529 2.69352 9.74304 2.60938 9.74304H2.25L1.375 8.64246L2.25 7.54285H2.60938Z" fill="#60D331"/>
<path d="M2.6875 7.70593L2.84255 7.83226L2.84274 7.83203L2.6875 7.70593ZM2.1377 8.38074L1.98264 8.25441L1.71676 8.58074H2.1377V8.38074ZM3.5752 8.38074H3.7752V8.18074H3.5752V8.38074ZM3.5752 8.90515V9.10515H3.7752V8.90515H3.5752ZM2.13867 8.90515V8.70515H1.71821L1.98351 9.03135L2.13867 8.90515ZM2.6875 9.57996L2.84294 9.4541L2.84266 9.45376L2.6875 9.57996ZM2.25 9.74304L2.09345 9.86751L2.1535 9.94304H2.25V9.74304ZM1.375 8.64246L1.2185 8.51792L1.11945 8.6424L1.21845 8.76692L1.375 8.64246ZM2.25 7.54285V7.34285H2.15355L2.0935 7.41831L2.25 7.54285ZM2.60938 7.54285V7.74285C2.52703 7.74285 2.478 7.64663 2.53226 7.57983L2.6875 7.70593L2.84274 7.83203C3.00315 7.63456 2.86013 7.34285 2.60938 7.34285V7.54285ZM2.6875 7.70593L2.53245 7.5796L1.98264 8.25441L2.1377 8.38074L2.29275 8.50707L2.84255 7.83226L2.6875 7.70593ZM2.1377 8.38074V8.58074H3.5752V8.38074V8.18074H2.1377V8.38074ZM3.5752 8.38074H3.3752V8.90515H3.5752H3.7752V8.38074H3.5752ZM3.5752 8.90515V8.70515H2.13867V8.90515V9.10515H3.5752V8.90515ZM2.13867 8.90515L1.98351 9.03135L2.53234 9.70615L2.6875 9.57996L2.84266 9.45376L2.29383 8.77896L2.13867 8.90515ZM2.6875 9.57996L2.53206 9.70581C2.47838 9.63951 2.52641 9.54304 2.60938 9.54304V9.74304V9.94304C2.86064 9.94304 3.00243 9.65108 2.84294 9.4541L2.6875 9.57996ZM2.60938 9.74304V9.54304H2.25V9.74304V9.94304H2.60938V9.74304ZM2.25 9.74304L2.40655 9.61858L1.53155 8.51799L1.375 8.64246L1.21845 8.76692L2.09345 9.86751L2.25 9.74304ZM1.375 8.64246L1.5315 8.76699L2.4065 7.66738L2.25 7.54285L2.0935 7.41831L1.2185 8.51792L1.375 8.64246ZM2.25 7.54285V7.74285H2.60938V7.54285V7.34285H2.25V7.54285Z" fill="white" mask="url(#path-10-inside-1_134_16102)"/>
<path d="M2.5 4.2403C3.16058 4.2403 3.7002 4.80223 3.7002 5.50006C3.70017 6.19787 3.16056 6.75983 2.5 6.75983C1.83944 6.75983 1.29983 6.19787 1.2998 5.50006C1.2998 4.80223 1.83942 4.2403 2.5 4.2403Z" fill="#3F403E" stroke="black" stroke-width="0.1"/>
<mask id="path-13-inside-2_134_16102" fill="white">
<path d="M2.60938 4.40002C2.69358 4.40002 2.74058 4.49777 2.6875 4.56311L2.1377 5.23792H3.5752V5.76233H2.13867L2.6875 6.43713C2.7404 6.50247 2.69352 6.60022 2.60938 6.60022H2.25L1.375 5.49963L2.25 4.40002H2.60938Z"/>
</mask>
<path d="M2.60938 4.40002C2.69358 4.40002 2.74058 4.49777 2.6875 4.56311L2.1377 5.23792H3.5752V5.76233H2.13867L2.6875 6.43713C2.7404 6.50247 2.69352 6.60022 2.60938 6.60022H2.25L1.375 5.49963L2.25 4.40002H2.60938Z" fill="#E3EA31"/>
<path d="M2.6875 4.56311L2.84255 4.68944L2.84274 4.68921L2.6875 4.56311ZM2.1377 5.23792L1.98264 5.11159L1.71676 5.43792H2.1377V5.23792ZM3.5752 5.23792H3.7752V5.03792H3.5752V5.23792ZM3.5752 5.76233V5.96233H3.7752V5.76233H3.5752ZM2.13867 5.76233V5.56233H1.71821L1.98351 5.88852L2.13867 5.76233ZM2.6875 6.43713L2.84294 6.31128L2.84266 6.31094L2.6875 6.43713ZM2.25 6.60022L2.09345 6.72468L2.1535 6.80022H2.25V6.60022ZM1.375 5.49963L1.2185 5.3751L1.11945 5.49958L1.21845 5.6241L1.375 5.49963ZM2.25 4.40002V4.20002H2.15355L2.0935 4.27549L2.25 4.40002ZM2.60938 4.40002V4.60002C2.52703 4.60002 2.478 4.50381 2.53226 4.43701L2.6875 4.56311L2.84274 4.68921C3.00315 4.49174 2.86013 4.20002 2.60938 4.20002V4.40002ZM2.6875 4.56311L2.53245 4.43678L1.98264 5.11159L2.1377 5.23792L2.29275 5.36424L2.84255 4.68944L2.6875 4.56311ZM2.1377 5.23792V5.43792H3.5752V5.23792V5.03792H2.1377V5.23792ZM3.5752 5.23792H3.3752V5.76233H3.5752H3.7752V5.23792H3.5752ZM3.5752 5.76233V5.56233H2.13867V5.76233V5.96233H3.5752V5.76233ZM2.13867 5.76233L1.98351 5.88852L2.53234 6.56333L2.6875 6.43713L2.84266 6.31094L2.29383 5.63613L2.13867 5.76233ZM2.6875 6.43713L2.53206 6.56299C2.47838 6.49669 2.5264 6.40022 2.60938 6.40022V6.60022V6.80022C2.86064 6.80022 3.00242 6.50825 2.84294 6.31128L2.6875 6.43713ZM2.60938 6.60022V6.40022H2.25V6.60022V6.80022H2.60938V6.60022ZM2.25 6.60022L2.40655 6.47576L1.53155 5.37517L1.375 5.49963L1.21845 5.6241L2.09345 6.72468L2.25 6.60022ZM1.375 5.49963L1.5315 5.62417L2.4065 4.52456L2.25 4.40002L2.0935 4.27549L1.2185 5.3751L1.375 5.49963ZM2.25 4.40002V4.60002H2.60938V4.40002V4.20002H2.25V4.40002Z" fill="white" mask="url(#path-13-inside-2_134_16102)"/>
<rect x="6.5" y="2.61902" width="0.45" height="1.04762" fill="#F7FB68"/>
<rect x="2.04999" y="2.61902" width="0.45" height="1.04762" fill="#F7FB68"/>
</svg>
