<svg width="10" height="13" viewBox="0 0 10 13" fill="none" xmlns="http://www.w3.org/2000/svg">
<rect x="2.55" y="0.05" width="4.9" height="12.9" rx="0.55" fill="#F7FB68" stroke="black" stroke-width="0.1"/>
<rect x="3" y="0.5" width="4" height="12" fill="#181C1F"/>
<circle cx="5" cy="2" r="1" fill="#D10F11"/>
<circle cx="5" cy="5" r="1" fill="#E3EA31"/>
<circle cx="5" cy="8" r="1" fill="#60D331"/>
<circle cx="5" cy="11" r="0.95" fill="#808080" stroke="black" stroke-width="0.1"/>
<mask id="path-7-inside-1_6_5592" fill="white">
<path d="M4.9502 10.7998H5.65039V11.2002H4.9502L5.25 11.5H4.75L4.25 11L4.75 10.5H5.25L4.9502 10.7998Z"/>
</mask>
<path d="M4.9502 10.7998H5.65039V11.2002H4.9502L5.25 11.5H4.75L4.25 11L4.75 10.5H5.25L4.9502 10.7998Z" fill="#60D331"/>
<path d="M4.9502 10.7998L4.87948 10.7291L4.70877 10.8998H4.9502V10.7998ZM5.65039 10.7998H5.75039V10.6998H5.65039V10.7998ZM5.65039 11.2002V11.3002H5.75039V11.2002H5.65039ZM4.9502 11.2002V11.1002H4.70877L4.87948 11.2709L4.9502 11.2002ZM5.25 11.5V11.6H5.49142L5.32071 11.4293L5.25 11.5ZM4.75 11.5L4.67929 11.5707L4.70858 11.6H4.75V11.5ZM4.25 11L4.17929 10.9293L4.10858 11L4.17929 11.0707L4.25 11ZM4.75 10.5V10.4H4.70858L4.67929 10.4293L4.75 10.5ZM5.25 10.5L5.32071 10.5707L5.49142 10.4H5.25V10.5ZM4.9502 10.7998V10.8998H5.65039V10.7998V10.6998H4.9502V10.7998ZM5.65039 10.7998H5.55039V11.2002H5.65039H5.75039V10.7998H5.65039ZM5.65039 11.2002V11.1002H4.9502V11.2002V11.3002H5.65039V11.2002ZM4.9502 11.2002L4.87948 11.2709L5.17929 11.5707L5.25 11.5L5.32071 11.4293L5.02091 11.1295L4.9502 11.2002ZM5.25 11.5V11.4H4.75V11.5V11.6H5.25V11.5ZM4.75 11.5L4.82071 11.4293L4.32071 10.9293L4.25 11L4.17929 11.0707L4.67929 11.5707L4.75 11.5ZM4.25 11L4.32071 11.0707L4.82071 10.5707L4.75 10.5L4.67929 10.4293L4.17929 10.9293L4.25 11ZM4.75 10.5V10.6H5.25V10.5V10.4H4.75V10.5ZM5.25 10.5L5.17929 10.4293L4.87948 10.7291L4.9502 10.7998L5.02091 10.8705L5.32071 10.5707L5.25 10.5Z" fill="white" mask="url(#path-7-inside-1_6_5592)"/>
</svg>
