<svg width="10" height="10" viewBox="0 0 10 10" fill="none" xmlns="http://www.w3.org/2000/svg">
<path d="M3 0H7L10 3V7L7 10H3L0 7V3L3 0Z" fill="black"/>
<path d="M6.90073 0.240601L9.75912 3.09802V6.90173L6.9017 9.75916H3.09799L0.24057 6.90076V3.099L3.09897 0.240601H6.90073Z" fill="#CD0202" stroke="#FFFDFC" stroke-width="0.35"/>
<path d="M2.0965 3.79999C2.29557 3.80004 2.46572 3.84692 2.60626 3.94061C2.74873 4.03239 2.85239 4.15064 2.91681 4.2951L2.59161 4.4035C2.46668 4.22196 2.30044 4.13114 2.09357 4.13104C1.96675 4.13104 1.866 4.15949 1.79181 4.216C1.71761 4.27263 1.6805 4.34689 1.68048 4.43866C1.68048 4.466 1.68341 4.49237 1.68927 4.51776C1.69513 4.54119 1.70685 4.56367 1.72443 4.58514C1.74196 4.60657 1.75766 4.62521 1.7713 4.64081C1.78498 4.65639 1.80752 4.67308 1.83868 4.69061C1.86982 4.70813 1.89439 4.72189 1.91193 4.73163C1.93147 4.74138 1.96289 4.75415 2.00568 4.76971C2.0485 4.78528 2.07896 4.79609 2.0965 4.80194C2.11609 4.80783 2.15144 4.81961 2.20197 4.8371C2.25259 4.85267 2.28696 4.86348 2.3045 4.86932C2.39423 4.89859 2.47352 4.92991 2.54181 4.96307C2.61008 4.99626 2.67665 5.03931 2.74103 5.09198C2.80734 5.14274 2.85825 5.20631 2.89337 5.28241C2.9285 5.35855 2.9461 5.44458 2.94611 5.54022C2.94611 5.75691 2.86782 5.925 2.71173 6.04413C2.5575 6.16321 2.35709 6.22279 2.11115 6.22284C1.89835 6.22284 1.71168 6.17392 1.55157 6.07635C1.39144 5.97676 1.27423 5.84292 1.20001 5.67499L1.53986 5.56073C1.59454 5.65834 1.67368 5.73848 1.77716 5.80096C1.88062 5.86142 1.99502 5.89178 2.11993 5.89178C2.24868 5.89173 2.35242 5.86048 2.43048 5.79803C2.50845 5.73556 2.54767 5.65438 2.54767 5.55487C2.54765 5.44951 2.50553 5.36735 2.42169 5.30878C2.33971 5.25022 2.21843 5.19351 2.05841 5.13885C1.83011 5.06276 1.67566 5.00212 1.59552 4.95721C1.38654 4.83807 1.28204 4.66522 1.28204 4.43866C1.28206 4.24728 1.35725 4.09294 1.50763 3.97577C1.65799 3.85871 1.85444 3.79999 2.0965 3.79999ZM5.8465 3.79999C6.14712 3.80007 6.38758 3.9114 6.5672 4.13397C6.74876 4.35465 6.83965 4.64774 6.83966 5.01288C6.83966 5.378 6.74873 5.6711 6.5672 5.89178C6.38563 6.11241 6.14517 6.22276 5.8465 6.22284C5.54577 6.22284 5.30449 6.1124 5.12286 5.89178C4.94122 5.67108 4.8504 5.37811 4.8504 5.01288C4.85041 4.64963 4.94123 4.35662 5.12286 4.13397C5.30449 3.91145 5.54581 3.79999 5.8465 3.79999ZM4.742 4.18378H4.07404V6.1701H3.68732V4.18378H3.01935V3.85272H4.742V4.18378ZM8.12872 3.85272C8.37075 3.85278 8.55945 3.91821 8.69415 4.04901C8.83076 4.17789 8.89922 4.34892 8.89923 4.56171C8.89923 4.78034 8.82877 4.95333 8.68829 5.08026C8.54969 5.20715 8.36489 5.27063 8.13458 5.27069H7.61017V6.1701H7.22345V3.85272H8.12872ZM5.8465 4.13104C5.66103 4.13104 5.51445 4.21125 5.40704 4.37128C5.30158 4.52947 5.24885 4.74338 5.24884 5.01288C5.24884 5.28436 5.30157 5.49921 5.40704 5.65741C5.51446 5.81358 5.661 5.89178 5.8465 5.89178C6.02993 5.89169 6.17469 5.81356 6.28009 5.65741C6.38742 5.50118 6.44122 5.2862 6.44122 5.01288C6.44122 4.74344 6.38843 4.52946 6.28302 4.37128C6.17957 4.21122 6.03383 4.13114 5.8465 4.13104ZM7.61017 4.94257H8.08185C8.2145 4.94251 8.31824 4.91029 8.3924 4.84589C8.46647 4.78144 8.50372 4.68658 8.50372 4.56171C8.50371 4.43878 8.46747 4.34489 8.39532 4.28046C8.32312 4.21606 8.21742 4.18383 8.07892 4.18378H7.61017V4.94257Z" fill="white"/>
</svg>
